<svg width="375" height="45" viewBox="0 20 375 45" fill="none" xmlns="http://www.w3.org/2000/svg">
<path d="M188.5 20V42L0 20H188.5Z" fill="#D9D9D9"/>
<path d="M187.419 20L375 20L187.419 42.4758L187.419 20Z" fill="#D9D9D9"/>
<path d="M187.502 45C191 42.5 187.502 43.5076 198.945 41.4941L369.301 23.5026C375 23 375 23 375 23C375.025 20.8849 375 23 375 20C347.5 22.5 347.5 22.5 347.5 22.5L187.502 40L34 23.5C34 23.5 16 21.5 0.0246277 20.0025C0.0246277 22.5 0 20.8849 0.0246277 23C5.69879 23.503 0.0246277 23 5.69879 23.503L176.055 41.4945C187.502 43.5 183 42.5 187.502 45Z" fill="black"/>
</svg>
