<svg width="28" height="12" viewBox="0 0 28 12" fill="none" xmlns="http://www.w3.org/2000/svg">
<path d="M14.0895 11.9968C14.3728 11.9815 14.6423 11.8857 14.8546 11.7241L27.5745 1.91052V1.91071C27.8274 1.71656 27.98 1.44427 27.9982 1.15371C28.0164 0.863157 27.899 0.578525 27.6719 0.362296C27.4447 0.146066 27.1266 0.016222 26.7877 0.00138968C26.4488 -0.0132518 26.117 0.0882899 25.8654 0.283573L14.0001 9.44095L2.13481 0.283573H2.13459C1.88327 0.0882899 1.55123 -0.0132528 1.21228 0.00138968C0.873342 0.0162215 0.555278 0.146096 0.328136 0.362296C0.100995 0.578496 -0.0163496 0.863148 0.00183879 1.15371C0.0202497 1.44426 0.17264 1.71653 0.425511 1.91071L13.1454 11.7243V11.7241C13.4038 11.9213 13.7446 12.0196 14.0895 11.9968H14.0895Z" fill="black"/>
</svg>
