<svg width="17" height="16" viewBox="0 0 17 16" fill="none" xmlns="http://www.w3.org/2000/svg">
<path d="M16.105 3.69791L13.0025 0.595477C12.9056 0.498575 12.7739 0.444026 12.6369 0.444026L3.84658 0.443897C3.56114 0.443897 3.32935 0.67531 3.32935 0.961134V12.8541C3.32935 13.1396 3.56076 13.3713 3.84658 13.3713H15.7396C16.025 13.3713 16.2568 13.1399 16.2568 12.8541V4.06351C16.2565 3.9263 16.2021 3.79462 16.105 3.69784L16.105 3.69791ZM13.1541 2.20919L14.4912 3.54631H13.1541V2.20919ZM4.36382 12.3367V1.47812H12.1201V4.06358C12.1201 4.34903 12.3515 4.58082 12.6373 4.58082H15.2228V12.3371L4.36382 12.3367Z" fill="black"/>
<path d="M2.295 12.8539V3.02894H1.26089C0.975443 3.02894 0.743652 3.26035 0.743652 3.54618V15.4392C0.743652 15.7246 0.975065 15.9564 1.26089 15.9564H13.1539C13.4393 15.9564 13.6711 15.725 13.6711 15.4392V14.405H3.84616C2.99085 14.405 2.29481 13.709 2.29481 12.8537L2.295 12.8539Z" fill="black"/>
<path d="M5.91445 6.64882H11.0855C11.371 6.64882 11.6027 6.4174 11.6027 6.13158C11.6027 5.84613 11.3713 5.61434 11.0855 5.61434H5.91445C5.62901 5.61434 5.39722 5.84575 5.39722 6.13158C5.39747 6.41741 5.62889 6.64882 5.91445 6.64882Z" fill="black"/>
<path d="M5.91445 8.97576H13.6707C13.9562 8.97576 14.1879 8.74435 14.1879 8.45852C14.1879 8.17308 13.9565 7.94128 13.6707 7.94128H5.91445C5.62901 7.94128 5.39722 8.1727 5.39722 8.45852C5.39747 8.74422 5.62889 8.97576 5.91445 8.97576Z" fill="black"/>
<path d="M13.671 10.2684H5.91445C5.62901 10.2684 5.39722 10.4998 5.39722 10.7856C5.39722 11.071 5.62863 11.3028 5.91445 11.3028H13.6707C13.9562 11.3028 14.1879 11.0714 14.1879 10.7856C14.1878 10.5 13.9564 10.2684 13.671 10.2684H13.671Z" fill="black"/>
</svg>
