<svg width="27" height="23" viewBox="0 0 27 23" fill="none" xmlns="http://www.w3.org/2000/svg">
<path d="M13.3651 6.85934C14.7151 6.85934 16.0651 7.31659 17.0102 8.23129L18.9001 6.63065C17.4151 5.25887 15.3901 4.57294 13.3651 4.57294C11.2051 4.57294 9.31513 5.25891 7.69513 6.63065C4.59023 9.25998 4.59023 13.6043 7.69513 16.348C9.18018 17.6056 11.2052 18.2916 13.3651 18.2916C15.5251 18.2916 17.4151 17.6056 19.0351 16.2339L17.1452 14.6334C15.1202 16.3482 11.7452 16.3482 9.85518 14.6334C7.83018 12.8042 7.83018 9.9462 9.85518 8.11705C10.665 7.31671 11.88 6.85946 13.365 6.85946L13.3651 6.85934Z" fill="black"/>
<path d="M13.5 0C6.075 0 0 5.1445 0 11.4322C0 17.7199 6.075 22.8644 13.5 22.8644C20.925 22.8644 27 17.7199 27 11.4322C27 5.1445 20.925 0 13.5 0ZM13.5 20.578C7.56 20.578 2.7 16.4624 2.7 11.4322C2.7 6.40204 7.56 2.28644 13.5 2.28644C19.44 2.28644 24.3 6.40204 24.3 11.4322C24.3 16.4624 19.44 20.578 13.5 20.578Z" fill="black"/>
</svg>
