<svg width="375" height="48" viewBox="0 23 375 48" fill="none" xmlns="http://www.w3.org/2000/svg">
<path d="M1.63765e-05 22.5L213.5 22.5L2.3487e-06 46L1.63765e-05 22.5Z" fill="#D9D9D9"/>
<path d="M375 23V45L164.5 23H375Z" fill="#D9D9D9"/>
<path d="M187.509 23C184.011 25.5 187.509 24.4923 176.066 26.5058L5.70971 44.4974C0.0109863 45 0.0109447 45 0.0109447 45C-0.0136875 47.1151 0.0109603 45 0.0109298 48C27.511 45.5 27.511 45.5 27.511 45.5L187.509 28L341.011 44.5C341.011 44.5 359.011 46.5 374.986 47.9974C374.986 45.5 375.011 47.1151 374.986 45C369.312 44.497 374.986 45 369.312 44.497L198.956 26.5055C187.509 24.5 192.011 25.5 187.509 23Z" fill="black"/>
</svg>
