<svg width="38" height="41" viewBox="0 0 38 41" fill="none" xmlns="http://www.w3.org/2000/svg">
<path d="M29.733 26.0171C27.7615 26.0171 25.871 26.8001 24.4769 28.1942C23.0828 29.5883 22.2998 31.4788 22.2998 33.4503C22.2998 35.4218 23.0828 37.3127 24.4769 38.7064C25.871 40.1005 27.7615 40.8839 29.733 40.8839C31.7045 40.8839 33.5951 40.1005 34.9891 38.7064C36.3832 37.3127 37.1662 35.4218 37.1662 33.4503C37.1662 31.4788 36.3832 29.5883 34.9891 28.1942C33.5951 26.8001 31.7045 26.0171 29.733 26.0171ZM30.3929 36.8979C30.2183 37.0737 29.9807 37.1726 29.733 37.1726C29.4854 37.1726 29.2477 37.0737 29.0732 36.8979L26.2857 34.1104L27.605 32.791L28.8037 33.9987V29.7341H30.662V33.9991L31.8607 32.791L33.18 34.1104L30.3929 36.8979ZM4.64516 37.1673C4.13215 37.1673 3.71589 36.7514 3.71589 36.238V26.0175H1.85767V36.238C1.85767 36.9775 2.15135 37.6866 2.674 38.2092C3.19697 38.7319 3.906 39.0255 4.64516 39.0255H21.3701V37.1673H4.64516Z" fill="black"/>
<path d="M29.7331 11.3174V8.36252C29.7349 8.09715 29.6236 7.8436 29.4263 7.66565L21.0638 0.232429C20.8921 0.0809241 20.6706 -0.00183284 20.4413 3.08042e-05H4.64574C3.90656 3.08042e-05 3.19751 0.293714 2.67458 0.816688C2.15192 1.33934 1.85824 2.04836 1.85824 2.78753V11.3173C1.31599 11.5089 0.846539 11.8636 0.513633 12.3327C0.18106 12.8019 0.00155303 13.3625 0 13.9374V21.3709C0 22.1101 0.293683 22.8191 0.816339 23.3417C1.33899 23.8647 2.04801 24.1584 2.7875 24.1584H28.8036C29.5431 24.1584 30.2522 23.8647 30.7748 23.3417C31.2974 22.8191 31.5911 22.1101 31.5911 21.3709V13.9374C31.5896 13.3624 31.41 12.8018 31.0775 12.3327C30.7446 11.8636 30.2752 11.5089 29.7329 11.3173L29.7331 11.3174ZM27.8748 11.1501H3.71599V2.78756C3.71599 2.27455 4.13225 1.85861 4.64526 1.85861H19.5122V8.36287V8.36256C19.5122 8.60896 19.6099 8.8454 19.7841 9.01962C19.9586 9.19383 20.1947 9.29183 20.4411 9.29183H27.8744L27.8748 11.1501Z" fill="black"/>
</svg>
