<svg width="47" height="52" viewBox="0 0 47 52" fill="none" xmlns="http://www.w3.org/2000/svg">
<path d="M19.3812 49.786L1.62976 32.0287C0.224273 30.6233 -0.324662 28.5745 0.189578 26.6541C0.704126 24.7341 2.20401 23.2342 4.12441 22.7197C6.04443 22.2051 8.09317 22.754 9.49904 24.1598L23.4998 38.1557L37.5005 24.1598C38.544 23.1164 39.9592 22.5301 41.4353 22.5301C42.9111 22.5301 44.3263 23.1164 45.3698 24.1598C46.4132 25.2033 46.9995 26.6185 46.9995 28.0943C46.9995 29.57 46.4132 30.9853 45.3698 32.0287L27.6183 49.785V49.7854C26.5734 50.8296 25.1555 51.414 23.6782 51.4091H23.4996C21.9612 51.4608 20.47 50.873 19.381 49.7854L19.3812 49.786Z" fill="black"/>
<path d="M23.6789 28.885H23.5004C21.962 28.9367 20.4708 28.3489 19.3817 27.2613L1.63025 9.49917C0.224761 8.0933 -0.324174 6.04455 0.190066 4.12454C0.704615 2.20414 2.2045 0.704232 4.1249 0.189703C6.04492 -0.324846 8.09366 0.224434 9.49953 1.62988L23.5003 15.6306L37.501 1.62988C38.5445 0.586424 39.9597 0.000185006 41.4358 0.000185006C42.9116 0.000185006 44.3268 0.586462 45.3703 1.62988C46.4137 2.6733 47 4.08859 47 5.56433C47 7.04037 46.4137 8.45571 45.3703 9.49917L27.6188 27.2555C26.5735 28.2997 25.1563 28.8855 23.6787 28.8844L23.6789 28.885Z" fill="black"/>
</svg>
