<svg width="21" height="26" viewBox="0 0 21 26" fill="none" xmlns="http://www.w3.org/2000/svg">
<path d="M18.0419 5.45932C16.997 3.75328 15.7704 2.21785 13.6502 0.835957C12.76 0.348457 11.572 0 10.5706 0C4.45076 0 0 10.3455 0 15.7083C0 21.3958 4.72894 26 10.5706 26C14.0199 26 17.2467 24.375 19.2495 21.6125C19.5203 21.3084 20.2202 19.8583 20.4141 19.3917C21.4655 15.8943 20.8345 13.8189 20.5652 11.857C20.171 10.2362 19.907 9.2979 19.3626 7.97251L18.7493 6.70618L18.0419 5.45932ZM10.5706 1.08333C11.572 1.08333 12.5178 1.40833 13.3523 2.00417C17.1354 4.49583 19.9172 11.3753 20.0284 15.4375L15.5777 18.3083L10.8487 15.275C10.6818 15.1667 10.4037 15.1667 10.2368 15.275L5.56345 18.3083L1.11269 15.4375C1.27959 10.4 5.50782 1.08333 10.5706 1.08333ZM10.5706 24.9167C5.78599 24.9167 1.72499 21.45 1.16801 16.7917L5.22933 19.4458C5.39623 19.5542 5.6744 19.5542 5.84131 19.4458L10.5146 16.3583L15.1879 19.3917C15.3548 19.5 15.633 19.5 15.7999 19.3917L19.8612 16.7917C19.4161 21.45 15.3548 24.9167 10.5706 24.9167Z" fill="black"/>
</svg>
