<svg width="39" height="42" viewBox="0 0 39 42" fill="none" xmlns="http://www.w3.org/2000/svg">
<path d="M38.9793 15.5717C38.9696 12.9785 38.0837 10.4669 36.4688 8.45114C37.0172 6.14713 36.8458 3.7278 35.9795 1.52538C35.8086 1.10142 35.4584 0.777278 35.0259 0.641703C34.4133 0.429712 32.0955 0.032248 27.3727 3.12382V3.12443C25.341 2.58277 23.2459 2.32703 21.1453 2.36462C19.0416 2.32642 16.943 2.58215 14.9088 3.12443C10.0634 -0.0380784 7.54424 0.473995 7.03726 0.624336C6.60224 0.765452 6.25267 1.09637 6.08366 1.52526C5.21486 3.72026 5.03732 6.1328 5.57665 8.43382C3.90857 10.439 3.01971 12.9884 3.07516 15.6068C3.07516 25.3778 8.61122 28.3283 13.6843 29.3709C13.4238 30.0142 13.2444 30.6878 13.1511 31.3761C13.1419 31.4494 13.1419 31.524 13.1511 31.5973V34.3001C8.53326 34.689 7.54476 31.9591 7.44839 31.6497V31.6503C7.42581 31.5782 7.39958 31.5074 7.36907 31.4377C6.4771 29.6002 4.90725 28.1883 2.99583 27.5068C2.19415 27.2363 1.3265 27.6732 1.05879 28.4829C0.790965 29.2926 1.22353 30.169 2.0252 30.44C3.08434 30.8264 3.96786 31.5893 4.50952 32.5863C5.12207 34.5915 7.62358 37.7631 13.1334 37.4095V39.9539C13.1334 40.808 13.8185 41.5 14.6642 41.5C15.5092 41.5 16.1949 40.808 16.1949 39.9539V31.7118C16.3108 30.8115 16.6989 29.9697 17.3053 29.2999C17.7397 28.8895 17.8971 28.2616 17.7092 27.6916C17.5213 27.1222 17.0216 26.7149 16.431 26.6495C11.0957 26.0222 6.16296 24.2469 6.16296 15.545H6.16235C6.09097 13.4215 6.90303 11.3645 8.40145 9.87325C8.80779 9.43203 8.942 8.80162 8.75166 8.23039C8.23611 6.71817 8.20256 5.08082 8.65526 3.54823C10.5331 3.9765 12.2969 4.8115 13.8241 5.99532C14.2219 6.26092 14.7179 6.32932 15.1712 6.18081C17.115 5.58306 19.1406 5.30576 21.1716 5.35938C23.1989 5.30577 25.2222 5.58308 27.1628 6.18081C27.6161 6.33055 28.1128 6.26215 28.5099 5.99532C29.9809 4.85652 31.6648 4.03017 33.4603 3.56558C33.9063 5.1154 33.8666 6.76627 33.3462 8.29208C33.1723 8.81033 33.2858 9.38343 33.6439 9.79383C35.0917 11.3553 35.9118 13.4061 35.9441 15.5451C35.9441 24.229 30.7576 26.0315 25.676 26.6496C25.0531 26.7199 24.5364 27.1679 24.3741 27.7792C24.2118 28.3905 24.4369 29.0394 24.9415 29.4153C25.4839 29.8306 26.1135 30.9964 26.1135 32.9487V39.9454C26.1135 40.7995 26.7986 41.4915 27.6436 41.4915C28.4893 41.4915 29.1744 40.7995 29.1744 39.9454V32.9487C29.1903 31.718 28.9676 30.4967 28.5185 29.3529C32.6294 28.4699 38.9795 25.74 38.9795 15.5716L38.9793 15.5717Z" fill="black"/>
</svg>
