<svg width="46" height="46" viewBox="0 0 46 46" fill="none" xmlns="http://www.w3.org/2000/svg">
<g clip-path="url(#clip0_17_17)">
<path d="M5.41251 0.512512C2.28851 0.512512 0.0205078 2.66751 0.0205078 5.63451C0.0205078 8.60051 2.24351 10.7535 5.30451 10.7535C6.89251 10.7535 8.26051 10.2385 9.26151 9.26451C10.2215 8.32951 10.7505 7.04051 10.7495 5.61151C10.6795 2.60951 8.48451 0.512512 5.41251 0.512512ZM7.86751 7.83151C7.24751 8.43451 6.36051 8.75351 5.30451 8.75351C3.37151 8.75351 2.02051 7.47151 2.02051 5.63451C2.02051 3.76751 3.38351 2.51251 5.41251 2.51251C7.39551 2.51251 8.70551 3.74751 8.75051 5.63551C8.74951 6.49751 8.43651 7.27651 7.86751 7.83151Z" fill="black"/>
<path d="M0.979492 45.4875H9.96749V12.4425H0.979492V45.4875ZM2.97949 14.4425H7.96749V43.4865H2.97949V14.4425Z" fill="black"/>
<path d="M33.6685 12.4425C29.5005 12.4425 26.9485 13.8815 25.4705 15.2345L25.1895 12.4425H15.0205V45.4865H24.9795V28.1195C24.9795 27.3715 25.2825 25.8185 25.4725 25.4085C26.6755 22.8175 28.2985 22.8175 30.7565 22.8175C33.5875 22.8175 35.9795 25.4725 35.9795 28.6145V45.4885H45.9795V26.8185C45.9795 16.9405 39.5975 12.4425 33.6685 12.4425ZM43.9795 43.4875H37.9795V28.6135C37.9795 24.3865 34.6715 20.8165 30.7565 20.8165C28.2445 20.8165 25.3985 20.8165 23.6575 24.5665C23.2985 25.3415 22.9785 27.1985 22.9785 28.1195V43.4875H17.0205V14.4425H23.3805L23.7885 18.4865H25.4275L25.7205 18.0135C26.3875 16.9395 28.4965 14.4415 33.6685 14.4415C38.6345 14.4415 43.9795 18.3135 43.9795 26.8155V43.4875Z" fill="black"/>
</g>
<defs>
<clipPath id="clip0_17_17">
<rect width="45.959" height="45.959" fill="white" transform="translate(0.0205078 0.0205078)"/>
</clipPath>
</defs>
</svg>
